<svg width="22" height="34" viewBox="0 0 22 34" fill="none" xmlns="http://www.w3.org/2000/svg">
<path d="M5.63281 34H0.195312C0.0703125 34 0.0078125 33.9219 0.0078125 33.7656L0.101562 0.789062C0.101562 0.664062 0.164062 0.601562 0.289062 0.601562H6.14844C6.27344 0.601562 6.38281 0.664062 6.47656 0.789062L10.8594 7.11719L15.2188 0.789062C15.3125 0.664062 15.4297 0.601562 15.5703 0.601562H21.4531C21.5938 0.601562 21.6641 0.664062 21.6641 0.789062L21.7578 33.7656C21.7578 33.9219 21.6953 34 21.5703 34H16.1328C16.0078 34 15.9453 33.9219 15.9453 33.7656L15.8984 9.27344L10.8594 16.5859L5.86719 9.27344L5.82031 33.7656C5.82031 33.9219 5.75781 34 5.63281 34Z" fill="#737373"/>
<path d="M10 21C10 21.5523 9.55228 22 9 22C8.44772 22 8 21.5523 8 21C8 20.4477 8.44772 20 9 20C9.55228 20 10 20.4477 10 21Z" fill="#737373"/>
<path d="M14 21C14 21.5523 13.5523 22 13 22C12.4477 22 12 21.5523 12 21C12 20.4477 12.4477 20 13 20C13.5523 20 14 20.4477 14 21Z" fill="#737373"/>
</svg>
